<svg width="800" height="800" viewBox="0 0 800 800" fill="none" xmlns="http://www.w3.org/2000/svg">
<path d="M400.791 307.387C448.247 307.387 486.516 269.116 486.516 221.662C486.516 174.209 448.55 135.938 400.791 135.938C353.334 135.938 315.066 174.209 315.066 221.662C315.369 269.425 353.641 307.387 400.791 307.387ZM201.784 555.688H47.7845C-2.11867 555.688 -4.87492 479.453 48.7032 479.453H182.188L258.728 366.784C281.384 335.863 307.103 321.166 343.534 321.166H457.734C494.169 321.166 519.884 334.638 542.541 366.784L619.388 479.453H753.794C807.678 479.453 804.309 555.688 755.631 555.688H601.631C589.384 555.688 574.688 551.4 566.116 538.237L507.331 454.35L507.025 664.378H296.388L296.081 454.35L237.297 538.237C228.725 551.094 214.031 555.688 201.784 555.688Z" fill="white"/>
<path d="M702.991 428.259C752.934 428.259 793.75 387.712 793.75 337.5C793.75 287.287 753.203 246.741 702.991 246.741C652.778 246.741 612.5 287.556 612.5 337.769C612.5 387.712 653.047 428.259 702.991 428.259ZM697.978 345.197C681.331 339.378 670.947 330.966 670.947 316.019C670.947 302.234 680.075 291.403 696.816 288.003V273.056H709.347V287.287C719.728 287.287 727.247 289.434 732.797 292.391L727.694 310.291C723.575 308.591 716.862 305.725 707.644 305.725C698.425 305.725 693.412 310.291 693.412 314.853C693.412 321.119 699.231 323.534 711.763 328.637C728.859 334.903 736.825 343.584 736.825 357.816C736.825 372.047 728.144 382.878 709.794 386.994V401.225H697.262V387.441C686.431 387.441 675.512 384.575 670.231 381.622L674.797 363.272C680.616 366.137 689.744 369.537 699.412 369.537C709.794 369.537 714.897 364.972 714.897 358.706C714.897 352.441 709.972 349.853 697.978 345.197Z" fill="white"/>
<path d="M131.191 292.231L93.925 343.716L70.0938 317.825C67.4469 314.884 67.5438 310.469 70.3875 307.625C73.3281 304.978 77.7438 305.075 80.5875 307.919L92.65 320.962L119.522 283.894C121.875 280.756 126.288 279.872 129.622 282.228C132.763 284.484 133.547 289.094 131.191 292.231ZM187.875 328.516C192.778 333.222 190.522 341.459 184.05 343.028L161.494 348.816L167.869 371.175C169.634 377.647 163.553 383.628 157.178 381.866L135.213 375.591L166.594 438.059L140.409 430.606L133.153 454.828L98.4375 385.591L63.7219 454.825L56.4656 430.603L30.2813 438.056L61.6625 375.588L39.6969 381.862C33.225 383.628 27.2438 377.547 29.0063 371.172L35.3813 348.812L12.825 343.031C6.35314 341.462 4.09689 333.225 9.00001 328.519L25.475 312.338L8.90001 296.156C3.99689 291.45 6.25314 283.212 12.725 281.644L35.2813 275.856L28.9063 253.497C27.1406 247.025 33.2219 241.044 39.5969 242.806L61.9563 249.181L67.7438 226.625C69.3125 220.153 77.7469 217.994 82.2563 222.8L98.4375 239.472L114.619 222.8C119.228 217.897 127.563 220.25 129.131 226.625L134.919 249.181L157.278 242.806C163.75 241.041 169.731 247.122 167.969 253.497L161.594 275.856L184.15 281.644C190.622 283.212 192.878 291.45 187.975 296.156L171.4 312.338L187.875 328.516ZM154.631 312.334C154.631 282.325 130.213 258.103 100.4 258.103C70.3906 258.103 46.1688 282.425 46.1688 312.431C46.1688 342.437 70.3906 366.662 100.4 366.662C130.409 366.662 154.631 342.344 154.631 312.334Z" fill="white"/>
</svg>
