<svg width="800" height="800" viewBox="0 0 800 800" fill="none" xmlns="http://www.w3.org/2000/svg">
<path fill-rule="evenodd" clip-rule="evenodd" d="M266.667 333.333C266.667 259.695 326.362 200 400 200C473.637 200 533.333 259.695 533.333 333.333V366.667H566.667C631.1 366.667 683.333 418.9 683.333 483.333C683.333 547.767 631.1 600 566.667 600H563.333C544.923 600 530 614.923 530 633.333C530 651.743 544.923 666.667 563.333 666.667H566.667C667.92 666.667 750 584.587 750 483.333C750 392.643 684.15 317.332 597.653 302.608C582.873 206.738 500.01 133.333 400 133.333C299.991 133.333 217.127 206.738 202.345 302.608C115.85 317.332 50 392.643 50 483.333C50 584.587 132.081 666.667 233.333 666.667H236.667C255.076 666.667 270 651.743 270 633.333C270 614.923 255.076 600 236.667 600H233.333C168.9 600 116.667 547.767 116.667 483.333C116.667 418.9 168.9 366.667 233.333 366.667H266.667V333.333ZM433.333 366.667C433.333 348.257 418.41 333.333 400 333.333C381.59 333.333 366.667 348.257 366.667 366.667V552.86L323.57 509.763C310.553 496.747 289.447 496.747 276.43 509.763C263.412 522.78 263.412 543.887 276.43 556.903L376.43 656.903C389.447 669.92 410.553 669.92 423.57 656.903L523.57 556.903C536.587 543.887 536.587 522.78 523.57 509.763C510.553 496.747 489.447 496.747 476.43 509.763L433.333 552.86V366.667Z" fill="white"/>
</svg>
