<svg width="150" height="150" viewBox="0 0 150 150" fill="none" xmlns="http://www.w3.org/2000/svg">
<g clip-path="url(#clip0_12_49)">
<path d="M56.7248 36.6504C37.2255 44.21 24.1984 63.3432 24.1984 84.2612V98.1912C24.1984 100.097 22.5053 101.691 20.5993 101.691H13.4062C7.53739 101.691 2.72754 96.8673 2.72754 90.9985V75.2626C2.72754 70.6249 5.71275 66.5524 10.1361 65.1284C11.9516 64.5441 13.9077 65.5417 14.4917 67.3556C15.0756 69.1695 14.0699 71.1138 12.2556 71.6977C10.7193 72.1923 9.62889 73.6585 9.62889 75.2626V90.9985C9.62889 93.062 11.3431 94.7892 13.4062 94.7892H17.297V84.2616C17.297 72.3434 20.8144 60.894 27.6088 51.1516C34.2468 41.6339 43.378 34.3944 54.1564 30.216C55.9331 29.5274 57.9322 30.4089 58.6212 32.1863C59.3094 33.9627 58.5015 35.9614 56.7248 36.6504ZM112.791 38.6146C112.791 45.8537 106.901 51.7436 99.6612 51.7436C92.422 51.7436 86.5321 45.8541 86.5321 38.6146C86.5321 31.3751 92.4217 25.4855 99.6612 25.4855C106.901 25.4855 112.791 31.3754 112.791 38.6146ZM105.889 38.6146C105.889 35.1808 103.095 32.3869 99.6612 32.3869C96.2274 32.3869 93.4335 35.1808 93.4335 38.6146C93.4335 42.0484 96.2274 44.8423 99.6612 44.8423C103.095 44.8423 105.889 42.0484 105.889 38.6146ZM147.272 75.2623V90.9981C147.272 96.8669 142.654 101.69 136.785 101.69H130.412C128.319 108.208 124.997 114.645 120.524 120.285C113.175 129.553 103.062 136.411 91.8151 139.805C91.3094 145.482 86.5271 149.999 80.722 149.999H69.4697C63.3286 149.999 58.3325 145.022 58.3325 138.881C58.3325 132.739 63.3286 127.762 69.4697 127.762H80.7223C84.7642 127.762 88.3104 129.855 90.2623 133.085C111.531 126.504 126.141 106.792 126.141 84.2605C126.141 77.3162 124.773 70.5931 122.074 64.2661L117.535 62.2375C115.58 63.7209 113.465 64.9455 111.213 65.8979L110.648 71.3484C110.462 74.9394 106.284 77.1594 99.6619 77.1594C93.0221 77.1594 88.8452 74.9333 88.6746 71.3316L88.111 65.8983C85.8589 64.9463 83.744 63.7217 81.7894 62.2383L76.769 64.482C73.5672 66.1095 69.5586 63.6009 66.2502 57.8697C65.0563 55.802 64.202 53.6453 63.8455 51.7984C63.1009 47.9398 64.6556 46.1899 65.7955 45.4473L70.2557 42.2155C70.1108 41.0208 70.0375 39.815 70.0375 38.6107C70.0375 37.3865 70.1131 36.1619 70.2626 34.9492L65.8043 31.7194C62.7696 29.7709 62.9303 25.04 66.251 19.2896C69.5598 13.5565 73.5699 11.0479 76.7721 12.6793L81.8407 14.9445C83.7793 13.4799 85.8746 12.2694 88.1041 11.3259L88.6746 5.82742C88.8448 2.22645 93.0217 0 99.6612 0C106.286 0 110.465 2.22147 110.648 5.81477L111.219 11.3263C113.448 12.2694 115.544 13.4806 117.483 14.9449L122.542 12.6847C123.755 12.0697 126.048 11.5985 129.017 14.1715C130.438 15.4038 131.879 17.2215 133.072 19.29C136.384 25.0247 136.551 29.754 133.533 31.7102L129.061 34.95C129.21 36.1627 129.286 37.3873 129.286 38.6111C129.286 39.8169 129.213 41.0231 129.068 42.2155L133.538 45.4546C136.551 47.413 136.382 52.1412 133.072 57.8732C131.879 59.9409 130.438 61.7617 129.017 62.9943C129.016 62.9959 129.014 63.0035 129.012 63.0051C131.687 69.7707 133.042 76.9266 133.042 84.285C133.042 87.8422 132.728 91.3378 132.109 94.7885H136.785C138.849 94.7885 140.371 93.0612 140.371 90.9977V75.2619C140.371 73.6573 139.357 72.1915 137.82 71.6969C136.006 71.113 135.068 69.1687 135.652 67.3548C136.236 65.5409 138.141 64.5433 139.955 65.1276C144.378 66.5524 147.272 70.6249 147.272 75.2623ZM84.9582 138.828C84.9582 138.546 84.9306 138.236 84.8781 137.97C84.8689 137.93 84.8605 137.926 84.8524 137.885C84.4226 136.002 82.7341 134.663 80.7223 134.663H69.4697C67.134 134.663 65.2338 136.544 65.2338 138.88C65.2338 141.217 67.134 143.098 69.4697 143.098H80.7223C83.0581 143.099 84.9582 141.164 84.9582 138.828ZM123.292 30.6079L128.706 26.6852C128.548 25.8774 128.088 24.4595 127.096 22.7415C126.104 21.0238 125.107 19.9161 124.486 19.3755L118.358 22.1131C117.125 22.664 115.684 22.4447 114.67 21.5525C112.384 19.5396 109.771 18.0302 106.906 17.0674C105.625 16.6365 104.713 15.497 104.573 14.152L103.882 7.47876C103.103 7.21152 101.645 6.90135 99.6612 6.90135C97.6778 6.90135 96.2197 7.21152 95.441 7.47838L94.7486 14.152C94.609 15.4966 93.6969 16.6361 92.4159 17.067C89.5492 18.0305 86.9374 19.5392 84.6523 21.5518C83.6385 22.4447 82.1965 22.6636 80.9639 22.1123L74.8366 19.374C74.2159 19.9146 73.2183 21.0223 72.2264 22.7403C71.2345 24.458 70.7737 25.8758 70.6161 26.6841L76.0306 30.6067C77.1252 31.4 77.6562 32.7592 77.3886 34.0842C77.0895 35.5653 76.9381 37.0882 76.9381 38.6111C76.9381 40.1168 77.0865 41.6239 77.3794 43.092C77.6432 44.4148 77.1122 45.7701 76.0202 46.5615L70.6165 50.4768C70.7744 51.2847 71.2349 52.7025 72.2268 54.4198C73.2187 56.1382 74.2163 57.2459 74.837 57.7865L80.9179 55.0693C82.1536 54.5168 83.5983 54.7384 84.6124 55.6352C86.9086 57.6669 89.5361 59.1886 92.4217 60.1571C93.7038 60.5877 94.6163 61.7272 94.7558 63.0722L95.4418 69.6817C96.2205 69.949 97.6782 70.2588 99.6619 70.2588C101.646 70.2588 103.104 69.9486 103.883 69.6814L104.568 63.0726C104.708 61.7276 105.62 60.5881 106.902 60.1571C109.788 59.1879 112.416 57.6661 114.711 55.6348C115.725 54.7376 117.169 54.5164 118.405 55.0685L124.487 57.7854C125.108 57.2444 126.104 56.1371 127.096 54.4198C128.088 52.7014 128.549 51.2831 128.707 50.4753L123.303 46.5607C122.21 45.769 121.679 44.4121 121.944 43.0889C122.237 41.627 122.385 40.1202 122.385 38.6111C122.385 37.0886 122.233 35.5657 121.934 34.0846C121.666 32.7599 122.197 31.4007 123.292 30.6079Z" fill="#1E90FF"/>
</g>
<defs>
<clipPath id="clip0_12_49">
<rect width="150" height="150" fill="white"/>
</clipPath>
</defs>
</svg>
