<svg width="800" height="800" viewBox="0 0 800 800" fill="none" xmlns="http://www.w3.org/2000/svg">
<g clip-path="url(#clip0_75_50)">
<path d="M175 625H150C80.975 625 25 569.025 25 500C25 430.975 80.975 375 150 375H175V625Z" stroke="white" stroke-width="50" stroke-miterlimit="10" stroke-linejoin="round"/>
<path d="M650 625H625V375H650C719.025 375 775 430.975 775 500C775 569.025 719.025 625 650 625Z" stroke="white" stroke-width="50" stroke-miterlimit="10" stroke-linejoin="round"/>
<path d="M125 375V300C125 148.125 248.125 25 400 25C551.875 25 675 148.125 675 300V375" stroke="white" stroke-width="50" stroke-miterlimit="10" stroke-linejoin="round"/>
<path d="M675 625V725C675 752.625 652.625 775 625 775H550" stroke="white" stroke-width="50" stroke-miterlimit="10" stroke-linejoin="round"/>
<path d="M450 775H500" stroke="white" stroke-width="50" stroke-miterlimit="10" stroke-linejoin="round"/>
<path d="M400 600V650" stroke="white" stroke-width="50" stroke-miterlimit="10" stroke-linejoin="round"/>
<path d="M400 550V484.625C400 448.6 421.925 416.225 455.375 402.85C497.425 386.025 525 345.3 525 300C525 230.975 469.025 175 400 175C330.975 175 275 230.975 275 300" stroke="white" stroke-width="50" stroke-miterlimit="10" stroke-linejoin="round"/>
</g>
<defs>
<clipPath id="clip0_75_50">
<rect width="800" height="800" fill="white"/>
</clipPath>
</defs>
</svg>
