<svg width="800" height="800" viewBox="0 0 800 800" fill="none" xmlns="http://www.w3.org/2000/svg">
<path fill-rule="evenodd" clip-rule="evenodd" d="M52.0135 28.5714C39.067 28.5714 28.5715 38.7794 28.5715 51.3717V68.5566C28.5715 81.1488 39.067 91.3568 52.0135 91.3568H106.49C115.391 91.3568 123.523 96.2588 127.484 104.011L156.992 169.5C158.093 171.657 158.961 174.127 160.595 175.77L287.343 469.797C286.083 470.383 284.873 471.094 283.736 471.931C248.618 497.789 224.86 531.08 224.858 564.583C224.856 584.083 233.226 602.306 250.001 614.891C265.929 626.84 286.754 631.766 309.112 631.766H309.846C295.314 646.594 286.394 666.674 286.394 688.777C286.394 734.426 324.44 771.429 371.372 771.429C418.303 771.429 456.349 734.426 456.349 688.777C456.349 666.674 447.429 646.594 432.894 631.766H544.269C529.737 646.594 520.814 666.674 520.814 688.777C520.814 734.426 558.86 771.429 605.792 771.429C652.726 771.429 690.772 734.426 690.772 688.777C690.772 666.674 681.849 646.594 667.317 631.766H684.909C697.857 631.766 708.352 621.557 708.352 608.966V597.566C708.352 584.971 697.857 574.763 684.909 574.763H309.112C294.834 574.763 288.183 571.546 285.794 569.754C284.251 568.597 283.463 567.48 283.463 564.589C283.464 556.906 290.603 539.166 316.257 519.506C317.383 518.64 318.437 517.697 319.406 516.686C321.977 517.397 324.672 517.774 327.432 517.774H683.529C697.852 517.774 710.077 507.703 712.432 493.957L771.023 151.953C774 134.582 760.226 118.769 742.12 118.769H210.123C205.66 118.769 201.605 116.171 199.74 112.116L167.134 41.2254C163.173 33.4734 155.041 28.5714 146.141 28.5714H52.0135ZM242.191 175.77C233.986 175.77 228.455 184.158 231.686 191.699L344 453.846C345.8 458.049 349.932 460.774 354.503 460.774H649.066C654.634 460.774 659.392 456.763 660.332 451.274L705.24 189.128C706.437 182.147 701.06 175.77 693.977 175.77H242.191ZM339.137 688.777C339.137 671.463 353.569 657.426 371.372 657.426C389.172 657.426 403.603 671.463 403.603 688.777C403.603 706.091 389.172 720.129 371.372 720.129C353.569 720.129 339.137 706.091 339.137 688.777ZM605.792 657.426C587.992 657.426 573.56 671.463 573.56 688.777C573.56 706.091 587.992 720.129 605.792 720.129C623.594 720.129 638.026 706.091 638.026 688.777C638.026 671.463 623.594 657.426 605.792 657.426Z" fill="white"/>
</svg>
