<svg width="150" height="150" viewBox="0 0 150 150" fill="none" xmlns="http://www.w3.org/2000/svg">
<path fill-rule="evenodd" clip-rule="evenodd" d="M50 62.5C50 48.6929 61.1929 37.5 75 37.5C88.8069 37.5 100 48.6929 100 62.5V68.75H106.25C118.331 68.75 128.125 78.5438 128.125 90.625C128.125 102.706 118.331 112.5 106.25 112.5H105.625C102.173 112.5 99.375 115.298 99.375 118.75C99.375 122.202 102.173 125 105.625 125H106.25C125.235 125 140.625 109.61 140.625 90.625C140.625 73.6206 128.278 59.4998 112.06 56.739C109.289 38.7633 93.7519 25 75 25C56.2484 25 40.7113 38.7633 37.9398 56.739C21.7219 59.4998 9.375 73.6206 9.375 90.625C9.375 109.61 24.7652 125 43.75 125H44.375C47.8267 125 50.625 122.202 50.625 118.75C50.625 115.298 47.8267 112.5 44.375 112.5H43.75C31.6688 112.5 21.875 102.706 21.875 90.625C21.875 78.5438 31.6688 68.75 43.75 68.75H50V62.5ZM81.25 68.75C81.25 65.2981 78.4519 62.5 75 62.5C71.5481 62.5 68.75 65.2981 68.75 68.75V103.661L60.6694 95.5806C58.2286 93.14 54.2714 93.14 51.8306 95.5806C49.3898 98.0212 49.3898 101.979 51.8306 104.419L70.5806 123.169C73.0212 125.61 76.9787 125.61 79.4194 123.169L98.1694 104.419C100.61 101.979 100.61 98.0212 98.1694 95.5806C95.7287 93.14 91.7712 93.14 89.3306 95.5806L81.25 103.661V68.75Z" fill="#1E90FF"/>
</svg>
