<svg width="800" height="800" viewBox="0 0 800 800" fill="none" xmlns="http://www.w3.org/2000/svg">
<g clip-path="url(#clip0_75_22)">
<path d="M400 66.6667C329.276 66.6667 261.448 94.7618 211.438 144.772C161.428 194.781 133.333 262.609 133.333 333.333V396.667C123.278 405.428 115.13 416.163 109.396 428.204C103.662 440.246 100.464 453.338 100 466.667C100.759 485.995 107.34 504.643 118.879 520.167C130.418 535.692 146.378 547.368 164.667 553.667C208 657.333 295 733.333 400 733.333H500V666.667H400C324.667 666.667 256.333 610 222 520.333L215 502L195.333 500C187.324 498.868 180 494.862 174.726 488.729C169.451 482.597 166.587 474.755 166.667 466.667C166.702 460.85 168.259 455.143 171.182 450.114C174.106 445.085 178.295 440.909 183.333 438L200 428.333V366.667C200 357.826 203.512 349.348 209.763 343.096C216.014 336.845 224.493 333.333 233.333 333.333H566.667C575.507 333.333 583.986 336.845 590.237 343.096C596.488 349.348 600 357.826 600 366.667V533.333H463.667C460.641 524.848 455.378 517.337 448.435 511.596C441.492 505.855 433.127 502.096 424.224 500.717C415.321 499.338 406.211 500.39 397.857 503.762C389.503 507.134 382.215 512.701 376.763 519.874C371.312 527.046 367.9 535.559 366.888 544.511C365.876 553.463 367.301 562.522 371.014 570.731C374.726 578.94 380.587 585.993 387.978 591.145C395.369 596.297 404.014 599.356 413 600H666.667C684.348 600 701.305 592.976 713.807 580.474C726.31 567.971 733.333 551.014 733.333 533.333V466.667C733.333 448.986 726.31 432.029 713.807 419.526C701.305 407.024 684.348 400 666.667 400V333.333C666.667 262.609 638.572 194.781 588.562 144.772C538.552 94.7618 470.724 66.6667 400 66.6667Z" fill="white"/>
</g>
<defs>
<clipPath id="clip0_75_22">
<rect width="800" height="800" fill="white"/>
</clipPath>
</defs>
</svg>
