<svg width="150" height="150" viewBox="0 0 150 150" fill="none" xmlns="http://www.w3.org/2000/svg">
<path d="M75.1482 57.6352C84.0463 57.6352 91.2217 50.4592 91.2217 41.5617C91.2217 32.6643 84.1031 25.4883 75.1482 25.4883C66.2502 25.4883 59.0748 32.6643 59.0748 41.5617C59.1316 50.5172 66.3076 57.6352 75.1482 57.6352ZM37.8346 104.191H8.95957C-0.397266 104.191 -0.914063 89.8975 9.13184 89.8975H34.1602L48.5115 68.7721C52.7596 62.9742 57.5818 60.2186 64.4127 60.2186H85.8252C92.6566 60.2186 97.4783 62.7445 101.726 68.7721L116.135 89.8975H141.336C151.44 89.8975 150.808 104.191 141.681 104.191H112.806C110.51 104.191 107.754 103.387 106.147 100.92L95.1246 85.1906L95.0672 124.571H55.5727L55.5152 85.1906L44.4932 100.92C42.8859 103.33 40.1309 104.191 37.8346 104.191Z" fill="#1E90FF"/>
<path d="M131.811 80.2986C141.175 80.2986 148.828 72.6961 148.828 63.2812C148.828 53.8664 141.226 46.2639 131.811 46.2639C122.396 46.2639 114.844 53.9168 114.844 63.3316C114.844 72.6961 122.446 80.2986 131.811 80.2986ZM130.871 64.7244C127.75 63.6334 125.803 62.056 125.803 59.2535C125.803 56.6689 127.514 54.6381 130.653 54.0006V51.198H133.003V53.8664C134.949 53.8664 136.359 54.2689 137.399 54.8232L136.443 58.1795C135.67 57.8607 134.412 57.3234 132.683 57.3234C130.955 57.3234 130.015 58.1795 130.015 59.0349C130.015 60.2098 131.106 60.6627 133.455 61.6195C136.661 62.7943 138.155 64.4221 138.155 67.0904C138.155 69.7588 136.527 71.7896 133.086 72.5613V75.2297H130.737V72.6451C128.706 72.6451 126.659 72.1078 125.668 71.5541L126.524 68.1135C127.615 68.6508 129.327 69.2883 131.14 69.2883C133.086 69.2883 134.043 68.4322 134.043 67.2574C134.043 66.0826 133.12 65.5974 130.871 64.7244Z" fill="#1E90FF"/>
<path d="M24.5982 54.7934L17.6109 64.4467L13.1426 59.5922C12.6463 59.0408 12.6645 58.2129 13.1977 57.6797C13.749 57.1834 14.577 57.2016 15.1102 57.7348L17.3719 60.1805L22.4104 53.2301C22.8516 52.6418 23.6789 52.476 24.3041 52.9178C24.893 53.3408 25.04 54.2051 24.5982 54.7934ZM35.2266 61.5967C36.1459 62.4791 35.7229 64.0236 34.5094 64.3178L30.2801 65.4029L31.4754 69.5953C31.8064 70.8088 30.6662 71.9303 29.4709 71.5998L25.3523 70.4233L31.2363 82.1361L26.3268 80.7387L24.9662 85.2803L18.457 72.2983L11.9479 85.2797L10.5873 80.7381L5.67774 82.1356L11.5617 70.4227L7.44317 71.5992C6.22969 71.9303 5.10821 70.7901 5.43867 69.5947L6.63399 65.4024L2.40469 64.3184C1.19121 64.0242 0.768166 62.4797 1.6875 61.5973L4.77657 58.5633L1.66875 55.5293C0.749416 54.6469 1.17246 53.1024 2.38594 52.8082L6.61524 51.7231L5.41992 47.5307C5.08887 46.3172 6.2291 45.1957 7.42442 45.5262L11.6168 46.7215L12.702 42.4922C12.9961 41.2787 14.5775 40.8738 15.4231 41.775L18.457 44.901L21.491 41.775C22.3553 40.8557 23.918 41.2969 24.2121 42.4922L25.2973 46.7215L29.4897 45.5262C30.7031 45.1951 31.8246 46.3354 31.4941 47.5307L30.2988 51.7231L34.5281 52.8082C35.7416 53.1024 36.1647 54.6469 35.2453 55.5293L32.1375 58.5633L35.2266 61.5967ZM28.9934 58.5627C28.9934 52.9359 24.4148 48.3943 18.825 48.3943C13.1982 48.3943 8.65664 52.9547 8.65664 58.5809C8.65664 64.207 13.1982 68.7492 18.825 68.7492C24.4518 68.7492 28.9934 64.1895 28.9934 58.5627Z" fill="#1E90FF"/>
</svg>
