<svg width="800" height="800" viewBox="0 0 800 800" fill="none" xmlns="http://www.w3.org/2000/svg">
<path fill-rule="evenodd" clip-rule="evenodd" d="M361.49 269.822C351.727 279.585 351.727 295.415 361.49 305.178L418.81 362.5H145.833C132.026 362.5 120.833 373.693 120.833 387.5C120.833 401.307 132.026 412.5 145.833 412.5H418.81L361.49 469.823C351.727 479.587 351.727 495.413 361.49 505.177C371.253 514.94 387.08 514.94 396.843 505.177L496.843 405.177C506.607 395.413 506.607 379.587 496.843 369.823L396.843 269.822C387.08 260.059 371.253 260.059 361.49 269.822Z" fill="white"/>
<path d="M412.5 195.915C412.5 210.847 421.64 223.908 432.2 234.467L532.2 334.467C561.49 363.757 561.49 411.243 532.2 440.533L432.2 540.533C421.64 551.09 412.5 564.153 412.5 579.087V654.167C559.777 654.167 679.167 534.777 679.167 387.5C679.167 240.224 559.777 120.833 412.5 120.833V195.915Z" fill="white"/>
</svg>
