<svg width="800" height="800" viewBox="0 0 800 800" fill="none" xmlns="http://www.w3.org/2000/svg">
<g clip-path="url(#clip0_75_59)">
<path d="M302.533 195.469C198.536 235.787 129.058 337.831 129.058 449.393V523.686C129.058 533.851 120.028 542.35 109.863 542.35H71.5001C40.1997 542.35 14.5471 516.626 14.5471 485.325V401.401C14.5471 376.666 30.4683 354.946 54.0596 347.351C63.742 344.235 74.1748 349.556 77.2891 359.23C80.4033 368.904 75.0397 379.273 65.3635 382.388C57.1698 385.026 51.3543 392.845 51.3543 401.401V485.325C51.3543 496.331 60.4968 505.543 71.5001 505.543H92.2512V449.395C92.2512 385.831 111.011 324.768 147.247 272.809C182.65 222.047 231.35 183.437 288.834 161.152C298.31 157.48 308.972 162.181 312.646 171.661C316.317 181.134 312.008 191.794 302.533 195.469ZM601.55 205.944C601.55 244.553 570.137 275.966 531.526 275.966C492.918 275.966 461.505 244.555 461.505 205.944C461.505 167.334 492.916 135.923 531.526 135.923C570.137 135.923 601.55 167.336 601.55 205.944ZM564.743 205.944C564.743 187.631 549.842 172.73 531.526 172.73C513.213 172.73 498.312 187.631 498.312 205.944C498.312 224.258 513.213 239.159 531.526 239.159C549.842 239.159 564.743 224.258 564.743 205.944ZM785.453 401.399V485.323C785.453 516.624 760.821 542.348 729.52 542.348H695.529C684.366 577.11 666.652 611.439 642.797 641.521C603.601 690.951 549.664 727.527 489.681 745.628C486.984 775.906 461.478 799.996 430.517 799.996H370.505C337.753 799.996 311.107 773.45 311.107 740.697C311.107 707.939 337.753 681.395 370.505 681.395H430.519C452.076 681.395 470.989 692.558 481.399 709.788C594.833 674.688 672.752 569.556 672.752 449.389C672.752 412.353 665.458 376.497 651.064 342.753L626.851 331.933C616.428 339.845 605.149 346.376 593.138 351.455L590.123 380.525C589.132 399.677 566.847 411.517 531.531 411.517C496.118 411.517 473.841 399.644 472.931 380.435L469.926 351.457C457.914 346.38 446.635 339.849 436.21 331.937L409.435 343.904C392.359 352.584 370.98 339.205 353.335 308.638C346.967 297.611 342.411 286.108 340.509 276.258C336.538 255.679 344.83 246.346 350.91 242.386L374.697 225.15C373.924 218.778 373.534 212.347 373.534 205.924C373.534 199.395 373.937 192.863 374.734 186.396L350.957 169.17C334.772 158.778 335.628 133.547 353.339 102.878C370.986 72.3016 392.373 58.9222 409.451 67.623L436.484 79.7039C446.823 71.8926 457.998 65.437 469.889 60.4047L472.931 31.0796C473.839 11.8744 496.116 0 531.526 0C566.857 0 589.146 11.8478 590.121 31.0121L593.168 60.4067C605.057 65.437 616.234 71.8967 626.575 79.706L653.559 67.6516C660.029 64.3717 672.259 61.8586 688.092 75.5815C695.672 82.1536 703.353 91.8482 709.72 102.88C727.384 133.465 728.271 158.688 712.176 169.121L688.325 186.4C689.123 192.868 689.525 199.399 689.525 205.926C689.525 212.357 689.137 218.79 688.364 225.15L712.203 242.424C728.271 252.869 727.373 278.086 709.718 308.657C703.355 319.685 695.672 329.396 688.092 335.97C688.084 335.978 688.074 336.019 688.063 336.027C702.332 372.11 709.559 410.275 709.559 449.52C709.559 468.492 707.884 487.135 704.582 505.538H729.52C740.526 505.538 748.646 496.326 748.646 485.321V401.397C748.646 392.839 743.235 385.022 735.042 382.384C725.367 379.269 720.362 368.9 723.476 359.226C726.59 349.552 736.751 344.231 746.425 347.347C770.019 354.946 785.453 376.666 785.453 401.399ZM453.111 740.417C453.111 738.914 452.964 737.26 452.683 735.839C452.634 735.626 452.589 735.604 452.546 735.389C450.254 725.343 441.249 718.204 430.519 718.204H370.505C358.048 718.204 347.914 728.236 347.914 740.693C347.914 753.157 358.048 763.191 370.505 763.191H430.519C442.977 763.193 453.111 752.875 453.111 740.417ZM657.556 163.242L686.434 142.321C685.591 138.013 683.135 130.451 677.843 121.288C672.555 112.127 667.237 106.219 663.926 103.336L631.243 117.936C624.669 120.875 616.983 119.705 611.576 114.947C599.38 104.211 585.447 96.1608 570.168 91.0262C563.332 88.7278 558.469 82.6505 557.725 75.4772L554.036 39.8867C549.885 38.4615 542.109 36.8072 531.526 36.8072C520.949 36.8072 513.172 38.4615 509.019 39.8847L505.326 75.4772C504.582 82.6485 499.717 88.7258 492.885 91.0242C477.596 96.1629 463.666 104.209 451.479 114.943C446.072 119.705 438.382 120.873 431.808 117.932L399.129 103.328C395.818 106.211 390.498 112.119 385.208 121.282C379.918 130.443 377.46 138.004 376.619 142.315L405.497 163.236C411.335 167.467 414.167 174.716 412.739 181.782C411.144 189.682 410.337 197.804 410.337 205.926C410.337 213.956 411.128 221.994 412.69 229.824C414.097 236.879 411.265 244.107 405.441 248.328L376.621 269.21C377.464 273.518 379.92 281.08 385.21 290.239C390.5 299.404 395.82 305.311 399.131 308.195L431.562 293.703C438.153 290.756 445.858 291.938 451.266 296.721C463.513 307.557 477.526 315.673 492.916 320.838C499.754 323.134 504.62 329.212 505.365 336.385L509.023 371.636C513.176 373.061 520.951 374.713 531.531 374.713C542.113 374.713 549.889 373.059 554.042 371.634L557.698 336.387C558.443 329.214 563.307 323.136 570.143 320.838C585.537 315.669 599.55 307.553 611.793 296.719C617.201 291.934 624.902 290.754 631.495 293.699L663.93 308.189C667.241 305.303 672.557 299.398 677.843 290.239C683.137 281.074 685.595 273.51 686.436 269.202L657.616 248.324C651.786 244.101 648.954 236.864 650.369 229.808C651.929 222.011 652.72 213.974 652.72 205.926C652.72 197.806 651.911 189.684 650.318 181.785C648.888 174.72 651.718 167.471 657.556 163.242Z" fill="white"/>
</g>
<defs>
<clipPath id="clip0_75_59">
<rect width="800" height="800" fill="white"/>
</clipPath>
</defs>
</svg>
