<svg width="200" height="200" viewBox="0 0 200 200" fill="none" xmlns="http://www.w3.org/2000/svg">
<rect width="200" height="200" fill="#1E90FF"/>
<path fill-rule="evenodd" clip-rule="evenodd" d="M166.5 34.5C166.389 35.1174 166.056 35.6174 165.5 36C157.189 37.4015 148.856 38.5682 140.5 39.5C139.427 38.7494 139.26 37.7494 140 36.5C141.333 35.1667 142.667 33.8333 144 32.5C148.962 35.4356 152.129 34.1022 153.5 28.5C156.247 28.1866 158.914 28.52 161.5 29.5C162.246 30.7362 162.579 32.0695 162.5 33.5C163.959 33.4326 165.292 33.7659 166.5 34.5Z" fill="#EBEEF5"/>
<path fill-rule="evenodd" clip-rule="evenodd" d="M180.5 53.5C177.119 53.4595 173.786 53.7929 170.5 54.5C170.001 41.9243 163.668 37.091 151.5 40C148.51 42.1533 146.51 44.9866 145.5 48.5C144.766 49.8775 144.099 51.3775 143.5 53C140.487 53.5022 137.487 54.0022 134.5 54.5C134.192 52.076 134.526 49.7427 135.5 47.5C136.736 46.7542 138.07 46.4208 139.5 46.5C139.993 44.1944 140.326 41.861 140.5 39.5C148.856 38.5682 157.189 37.4015 165.5 36C166.056 35.6174 166.389 35.1174 166.5 34.5C168.494 33.6503 170.494 33.1503 172.5 33C174.019 34.3513 175.352 35.8513 176.5 37.5C174.318 39.7336 173.985 42.2336 175.5 45C176.619 46.876 178.286 47.7093 180.5 47.5C180.5 49.5 180.5 51.5 180.5 53.5Z" fill="#EBEEF5"/>
<path fill-rule="evenodd" clip-rule="evenodd" d="M170.5 54.5C167.017 62.4062 161.017 65.2395 152.5 63C146.564 59.961 144.231 55.1276 145.5 48.5C146.51 44.9866 148.51 42.1533 151.5 40C163.668 37.091 170.001 41.9243 170.5 54.5Z" fill="#EBEEF5"/>
<path fill-rule="evenodd" clip-rule="evenodd" d="M131.5 47.5C120.167 47.5 108.833 47.5 97.5 47.5C90.1667 47.5 82.8333 47.5 75.5 47.5C68.1667 47.5 60.8332 47.5 53.4999 47.5C49.4999 47.5 45.4999 47.5 41.4999 47.5C41.4999 57.5 41.4999 67.5 41.4999 77.5C40.5057 67.3468 40.1723 57.0135 40.4999 46.5C71.0045 46.1685 101.338 46.5019 131.5 47.5Z" fill="white"/>
<path fill-rule="evenodd" clip-rule="evenodd" d="M154.5 45.5C162.744 45.2276 165.078 48.7276 161.5 56C157.543 58.3854 154.376 57.5521 152 53.5C151.018 50.2253 151.851 47.5586 154.5 45.5Z" fill="#1E90FF"/>
<path fill-rule="evenodd" clip-rule="evenodd" d="M53.5 47.5C53.5 50.1667 53.5 52.8333 53.5 55.5C52.1667 55.5 50.8333 55.5 49.5 55.5C49.5 63.1667 49.5 70.8333 49.5 78.5C46.6146 78.8064 43.9479 78.4731 41.5 77.5C41.5 67.5 41.5 57.5 41.5 47.5C45.5 47.5 49.5 47.5 53.5 47.5Z" fill="white"/>
<path fill-rule="evenodd" clip-rule="evenodd" d="M53.5 47.5C60.8333 47.5 68.1667 47.5 75.5 47.5C75.5 50.1667 75.5 52.8333 75.5 55.5C68.1667 55.5 60.8333 55.5 53.5 55.5C53.5 52.8333 53.5 50.1667 53.5 47.5Z" fill="white"/>
<path fill-rule="evenodd" clip-rule="evenodd" d="M75.5 47.5C82.8333 47.5 90.1667 47.5 97.5 47.5C97.5 50.1667 97.5 52.8333 97.5 55.5C90.1667 55.5 82.8333 55.5 75.5 55.5C75.5 52.8333 75.5 50.1667 75.5 47.5Z" fill="white"/>
<path fill-rule="evenodd" clip-rule="evenodd" d="M97.5 47.5C108.833 47.5 120.167 47.5 131.5 47.5C131.5 50.1667 131.5 52.8333 131.5 55.5C120.167 55.5 108.833 55.5 97.5 55.5C97.5 52.8333 97.5 50.1667 97.5 47.5Z" fill="white"/>
<path fill-rule="evenodd" clip-rule="evenodd" d="M53.5 55.5C60.8333 55.5 68.1667 55.5 75.5 55.5C82.8333 55.5 90.1667 55.5 97.5 55.5C108.833 55.5 120.167 55.5 131.5 55.5C104.672 56.4979 77.6718 56.8312 50.5 56.5C50.825 64.0191 50.4916 71.3524 49.5 78.5C49.5 70.8333 49.5 63.1667 49.5 55.5C50.8333 55.5 52.1667 55.5 53.5 55.5Z" fill="white"/>
<path fill-rule="evenodd" clip-rule="evenodd" d="M145.5 48.5C144.231 55.1276 146.564 59.961 152.5 63C161.017 65.2395 167.017 62.4062 170.5 54.5C173.786 53.7929 177.119 53.4595 180.5 53.5C179.378 54.9473 177.878 55.9473 176 56.5C173.878 59.5023 174.045 62.3356 176.5 65C175.167 66.3333 173.833 67.6667 172.5 69C170.674 69.2917 168.841 69.125 167 68.5C162.867 68.4692 161.034 70.4692 161.5 74.5C158.833 74.5 156.167 74.5 153.5 74.5C153.5 72.8333 153.5 71.1667 153.5 69.5C151.278 69.822 149.444 69.1554 148 67.5C144.021 70.4036 140.855 69.5703 138.5 65C141.713 59.6093 140.38 56.1093 134.5 54.5C137.487 54.0022 140.487 53.5022 143.5 53C144.099 51.3775 144.766 49.8775 145.5 48.5Z" fill="#EBEEF5"/>
<path fill-rule="evenodd" clip-rule="evenodd" d="M108.5 79.5C108.81 76.2869 108.477 73.2869 107.5 70.5C115.741 66.3793 124.075 62.2126 132.5 58C135.237 56.9202 136.904 57.7536 137.5 60.5C136.215 63.1142 135.549 65.6142 135.5 68C126.699 72.403 117.699 76.2364 108.5 79.5Z" fill="#EBEEF5"/>
<path fill-rule="evenodd" clip-rule="evenodd" d="M67.4999 87.5C69.3434 89.2789 70.0101 91.6122 69.4999 94.5C54.8329 101.218 39.4995 103.385 23.4999 101C18.2376 96.1457 17.0709 90.3124 19.9999 83.5C22.0642 79.039 24.3976 74.7057 26.9999 70.5C25.7122 76.0268 25.3788 81.6935 25.9999 87.5C27.2505 90.3807 29.4172 92.214 32.4999 93C38.8735 93.608 45.2068 93.2747 51.4999 92C56.8218 90.3918 62.1552 88.8918 67.4999 87.5Z" fill="white"/>
<path fill-rule="evenodd" clip-rule="evenodd" d="M137.5 69.5C139.736 70.3891 141.736 71.7224 143.5 73.5C145.331 72.0706 147.331 71.5706 149.5 72C134.334 78.1648 119.001 83.4982 103.5 88C115.485 82.806 126.818 76.6394 137.5 69.5Z" fill="#EBEEF5"/>
<path fill-rule="evenodd" clip-rule="evenodd" d="M46.5 88.5C47.9952 86.1689 47.6618 84.1689 45.5 82.5C51.2102 82.529 56.8769 82.029 62.5 81C69.1027 79.0128 75.7694 77.6794 82.5 77C70.842 81.9417 58.842 85.775 46.5 88.5Z" fill="#EBEEF5"/>
<path fill-rule="evenodd" clip-rule="evenodd" d="M45.5 82.5C47.6618 84.1689 47.9952 86.1689 46.5 88.5C33.5122 90.6776 28.0122 85.3443 30 72.5C32.814 79.4898 37.9807 82.8231 45.5 82.5Z" fill="#EBEEF5"/>
<path fill-rule="evenodd" clip-rule="evenodd" d="M107.5 70.5C108.477 73.2869 108.81 76.2869 108.5 79.5C96.1109 85.8521 83.1109 90.8521 69.5 94.5C70.0102 91.6122 69.3435 89.2789 67.5 87.5C80.909 82.2449 94.2423 76.5782 107.5 70.5Z" fill="#EBEEF5"/>
<path fill-rule="evenodd" clip-rule="evenodd" d="M153.5 77.5C156.167 77.5 158.833 77.5 161.5 77.5C161.5 82.8333 161.5 88.1667 161.5 93.5C158.833 93.5 156.167 93.5 153.5 93.5C153.5 88.1667 153.5 82.8333 153.5 77.5Z" fill="#EBEEF5"/>
<path fill-rule="evenodd" clip-rule="evenodd" d="M153.5 77.5C153.5 82.8333 153.5 88.1667 153.5 93.5C153.5 96.8333 153.5 100.167 153.5 103.5C119.167 103.5 84.8333 103.5 50.5 103.5C84.3292 102.502 118.329 102.168 152.5 102.5C152.174 93.9832 152.507 85.6499 153.5 77.5Z" fill="#EBEEF5"/>
<path fill-rule="evenodd" clip-rule="evenodd" d="M153.5 93.5C156.167 93.5 158.833 93.5 161.5 93.5C161.5 97.1667 161.5 100.833 161.5 104.5C121.497 106.106 81.4975 107.773 41.5 109.5C41.366 107.708 41.6993 106.042 42.5 104.5C45.2062 104.425 47.8728 104.092 50.5 103.5C84.8333 103.5 119.167 103.5 153.5 103.5C153.5 100.167 153.5 96.8333 153.5 93.5Z" fill="#EBEEF5"/>
<path fill-rule="evenodd" clip-rule="evenodd" d="M161.5 77.5C162.495 88.988 162.828 100.655 162.5 112.5C121.833 112.5 81.1667 112.5 40.5 112.5C39.9644 109.302 40.631 106.635 42.5 104.5C41.6993 106.042 41.366 107.708 41.5 109.5C81.1527 111.494 121.153 112.161 161.5 111.5C161.5 109.167 161.5 106.833 161.5 104.5C161.5 100.833 161.5 97.1667 161.5 93.5C161.5 88.1667 161.5 82.8333 161.5 77.5Z" fill="#EBEEF5"/>
<path fill-rule="evenodd" clip-rule="evenodd" d="M161.5 104.5C161.5 106.833 161.5 109.167 161.5 111.5C121.153 112.161 81.1527 111.494 41.5 109.5C81.4975 107.773 121.497 106.106 161.5 104.5Z" fill="#EBEEF5"/>
<path fill-rule="evenodd" clip-rule="evenodd" d="M85.5 117.5C88.5 117.5 91.5 117.5 94.5 117.5C94.5 122.5 94.5 127.5 94.5 132.5C91.5 132.5 88.5 132.5 85.5 132.5C85.5 127.5 85.5 122.5 85.5 117.5Z" fill="#EBEEF5"/>
<path fill-rule="evenodd" clip-rule="evenodd" d="M120.5 118.5C117.833 118.5 115.167 118.5 112.5 118.5C112.5 123.167 112.5 127.833 112.5 132.5C111.513 127.695 111.179 122.695 111.5 117.5C114.713 117.19 117.713 117.523 120.5 118.5Z" fill="#EBEEF5"/>
<path fill-rule="evenodd" clip-rule="evenodd" d="M120.5 118.5C120.5 123.167 120.5 127.833 120.5 132.5C117.833 132.5 115.167 132.5 112.5 132.5C112.5 127.833 112.5 123.167 112.5 118.5C115.167 118.5 117.833 118.5 120.5 118.5Z" fill="#EBEEF5"/>
<path fill-rule="evenodd" clip-rule="evenodd" d="M71.5 147.5C73.5273 147.338 75.5273 147.505 77.5 148C78.9733 148.71 79.6399 149.876 79.5 151.5C77.4727 151.338 75.4727 151.505 73.5 152C72.6634 153.011 72.33 154.178 72.5 155.5C74.5 155.5 76.5 155.5 78.5 155.5C78.2407 159.068 76.2407 160.401 72.5 159.5C72.5 163.167 72.5 166.833 72.5 170.5C70.8561 170.714 69.3561 170.38 68 169.5C67.3333 163.167 67.3333 156.833 68 150.5C69.1451 149.364 70.3117 148.364 71.5 147.5Z" fill="#EBEEF5"/>
<path fill-rule="evenodd" clip-rule="evenodd" d="M39.5 149.5C41.1667 149.5 42.8333 149.5 44.5 149.5C44.5 156.5 44.5 163.5 44.5 170.5C42.8561 170.714 41.3561 170.38 40 169.5C39.5004 162.842 39.3337 156.175 39.5 149.5Z" fill="#EBEEF5"/>
<path fill-rule="evenodd" clip-rule="evenodd" d="M114.5 149.5C117.518 149.335 120.518 149.502 123.5 150C125.107 151.049 125.773 152.549 125.5 154.5C123.658 154.277 121.825 153.943 120 153.5C118.338 153.388 117.171 154.054 116.5 155.5C119.867 157.227 123.034 159.227 126 161.5C126.944 164.347 126.444 166.847 124.5 169C120.961 170.504 117.295 170.837 113.5 170C111.893 168.951 111.227 167.451 111.5 165.5C113.488 165.827 115.488 166.16 117.5 166.5C119.319 166.658 120.652 165.991 121.5 164.5C118.318 162.652 115.151 160.652 112 158.5C110.927 154.9 111.76 151.9 114.5 149.5Z" fill="#EBEEF5"/>
<path fill-rule="evenodd" clip-rule="evenodd" d="M52.5 153.5C57.2225 152.553 61.0558 153.886 64 157.5C64.499 161.821 64.6657 166.154 64.5 170.5C62.8333 170.5 61.1667 170.5 59.5 170.5C59.6655 166.486 59.4988 162.486 59 158.5C57.3333 157.167 55.6667 157.167 54 158.5C53.5012 162.486 53.3345 166.486 53.5 170.5C51.8561 170.714 50.3561 170.38 49 169.5C48.3333 165.167 48.3333 160.833 49 156.5C50.1451 155.364 51.3117 154.364 52.5 153.5Z" fill="#EBEEF5"/>
<path fill-rule="evenodd" clip-rule="evenodd" d="M84.4999 153.5C86.8567 153.337 89.1901 153.503 91.4999 154C92.3365 155.011 92.6699 156.178 92.4999 157.5C90.4999 157.5 88.4999 157.5 86.4999 157.5C86.4999 161.833 86.4999 166.167 86.4999 170.5C84.8332 170.5 83.1666 170.5 81.4999 170.5C81.334 165.489 81.5006 160.489 81.9999 155.5C82.9946 154.934 83.8279 154.267 84.4999 153.5Z" fill="#EBEEF5"/>
<path fill-rule="evenodd" clip-rule="evenodd" d="M95.5 153.5C107.889 152.063 111.889 157.229 107.5 169C102.889 171.116 98.3886 170.949 94 168.5C93.3333 166.5 93.3333 164.5 94 162.5C97.0554 161.086 100.222 159.919 103.5 159C100.986 157.196 98.3193 157.03 95.5 158.5C94.3336 156.833 94.3336 155.166 95.5 153.5Z" fill="#EBEEF5"/>
<path fill-rule="evenodd" clip-rule="evenodd" d="M133.5 153.5C137.676 153.168 141.176 154.502 144 157.5C144.743 159.441 144.576 161.274 143.5 163C140.22 163.056 137.22 163.889 134.5 165.5C137.168 166.738 139.834 166.738 142.5 165.5C143.747 167.006 143.747 168.506 142.5 170C132.415 172.576 127.915 168.743 129 158.5C130.025 156.313 131.525 154.646 133.5 153.5Z" fill="#EBEEF5"/>
<path fill-rule="evenodd" clip-rule="evenodd" d="M151.5 153.5C153.527 153.338 155.527 153.505 157.5 154C159.283 155.067 159.783 156.567 159 158.5C153.317 156.514 150.984 158.514 152 164.5C154.481 166.314 157.315 166.98 160.5 166.5C159.981 169.775 157.981 171.108 154.5 170.5C146.931 169.342 144.431 165.008 147 157.5C148.397 155.93 149.897 154.596 151.5 153.5Z" fill="#EBEEF5"/>
<path fill-rule="evenodd" clip-rule="evenodd" d="M134.5 157.5C136.665 157.116 138.332 157.783 139.5 159.5C137.5 160.833 135.5 160.833 133.5 159.5C133.863 158.817 134.196 158.15 134.5 157.5Z" fill="#4169E1"/>
<path fill-rule="evenodd" clip-rule="evenodd" d="M98.5 163.5C100.167 163.5 101.833 163.5 103.5 163.5C103.65 167.161 102.15 168.161 99 166.5C98.5172 165.552 98.3505 164.552 98.5 163.5Z" fill="#4169E1"/>
</svg>
