<?xml version="1.0" encoding="UTF-8"?>
<!DOCTYPE svg PUBLIC "-//W3C//DTD SVG 1.1//EN" "http://www.w3.org/Graphics/SVG/1.1/DTD/svg11.dtd">
<svg xmlns="http://www.w3.org/2000/svg" version="1.1" width="200px" height="200px" style="shape-rendering:geometricPrecision; text-rendering:geometricPrecision; image-rendering:optimizeQuality; fill-rule:evenodd; clip-rule:evenodd" xmlns:xlink="http://www.w3.org/1999/xlink">
<g><path style="opacity:1" fill="#f1f4f7" d="M -0.5,-0.5 C 66.1667,-0.5 132.833,-0.5 199.5,-0.5C 199.5,66.1667 199.5,132.833 199.5,199.5C 132.833,199.5 66.1667,199.5 -0.5,199.5C -0.5,132.833 -0.5,66.1667 -0.5,-0.5 Z"/></g>
<g><path style="opacity:1" fill="#1722b6" d="M 166.5,34.5 C 166.389,35.1174 166.056,35.6174 165.5,36C 157.189,37.4015 148.856,38.5682 140.5,39.5C 139.427,38.7494 139.26,37.7494 140,36.5C 141.333,35.1667 142.667,33.8333 144,32.5C 148.962,35.4356 152.129,34.1022 153.5,28.5C 156.247,28.1866 158.914,28.52 161.5,29.5C 162.246,30.7362 162.579,32.0695 162.5,33.5C 163.959,33.4326 165.292,33.7659 166.5,34.5 Z"/></g>
<g><path style="opacity:1" fill="#1b38c1" d="M 180.5,53.5 C 177.119,53.4595 173.786,53.7929 170.5,54.5C 170.001,41.9243 163.668,37.091 151.5,40C 148.51,42.1533 146.51,44.9866 145.5,48.5C 144.766,49.8775 144.099,51.3775 143.5,53C 140.487,53.5022 137.487,54.0022 134.5,54.5C 134.192,52.076 134.526,49.7427 135.5,47.5C 136.736,46.7542 138.07,46.4208 139.5,46.5C 139.993,44.1944 140.326,41.861 140.5,39.5C 148.856,38.5682 157.189,37.4015 165.5,36C 166.056,35.6174 166.389,35.1174 166.5,34.5C 168.494,33.6503 170.494,33.1503 172.5,33C 174.019,34.3513 175.352,35.8513 176.5,37.5C 174.318,39.7336 173.985,42.2336 175.5,45C 176.619,46.876 178.286,47.7093 180.5,47.5C 180.5,49.5 180.5,51.5 180.5,53.5 Z"/></g>
<g><path style="opacity:1" fill="#ebeef5" d="M 170.5,54.5 C 167.017,62.4062 161.017,65.2395 152.5,63C 146.564,59.961 144.231,55.1276 145.5,48.5C 146.51,44.9866 148.51,42.1533 151.5,40C 163.668,37.091 170.001,41.9243 170.5,54.5 Z"/></g>
<g><path style="opacity:1" fill="#f29f6d" d="M 131.5,47.5 C 120.167,47.5 108.833,47.5 97.5,47.5C 90.1667,47.5 82.8333,47.5 75.5,47.5C 68.1667,47.5 60.8333,47.5 53.5,47.5C 49.5,47.5 45.5,47.5 41.5,47.5C 41.5,57.5 41.5,67.5 41.5,77.5C 40.5058,67.3468 40.1724,57.0135 40.5,46.5C 71.0046,46.1685 101.338,46.5019 131.5,47.5 Z"/></g>
<g><path style="opacity:1" fill="#f3833a" d="M 154.5,45.5 C 162.744,45.2276 165.078,48.7276 161.5,56C 157.543,58.3854 154.376,57.5521 152,53.5C 151.018,50.2253 151.851,47.5586 154.5,45.5 Z"/></g>
<g><path style="opacity:1" fill="#ea551d" d="M 53.5,47.5 C 53.5,50.1667 53.5,52.8333 53.5,55.5C 52.1667,55.5 50.8333,55.5 49.5,55.5C 49.5,63.1667 49.5,70.8333 49.5,78.5C 46.6146,78.8064 43.9479,78.4731 41.5,77.5C 41.5,67.5 41.5,57.5 41.5,47.5C 45.5,47.5 49.5,47.5 53.5,47.5 Z"/></g>
<g><path style="opacity:1" fill="#ef6d29" d="M 53.5,47.5 C 60.8333,47.5 68.1667,47.5 75.5,47.5C 75.5,50.1667 75.5,52.8333 75.5,55.5C 68.1667,55.5 60.8333,55.5 53.5,55.5C 53.5,52.8333 53.5,50.1667 53.5,47.5 Z"/></g>
<g><path style="opacity:1" fill="#f48637" d="M 75.5,47.5 C 82.8333,47.5 90.1667,47.5 97.5,47.5C 97.5,50.1667 97.5,52.8333 97.5,55.5C 90.1667,55.5 82.8333,55.5 75.5,55.5C 75.5,52.8333 75.5,50.1667 75.5,47.5 Z"/></g>
<g><path style="opacity:1" fill="#fba347" d="M 97.5,47.5 C 108.833,47.5 120.167,47.5 131.5,47.5C 131.5,50.1667 131.5,52.8333 131.5,55.5C 120.167,55.5 108.833,55.5 97.5,55.5C 97.5,52.8333 97.5,50.1667 97.5,47.5 Z"/></g>
<g><path style="opacity:1" fill="#f3d7c3" d="M 53.5,55.5 C 60.8333,55.5 68.1667,55.5 75.5,55.5C 82.8333,55.5 90.1667,55.5 97.5,55.5C 108.833,55.5 120.167,55.5 131.5,55.5C 104.672,56.4979 77.6718,56.8312 50.5,56.5C 50.825,64.0191 50.4916,71.3524 49.5,78.5C 49.5,70.8333 49.5,63.1667 49.5,55.5C 50.8333,55.5 52.1667,55.5 53.5,55.5 Z"/></g>
<g><path style="opacity:1" fill="#1d68da" d="M 145.5,48.5 C 144.231,55.1276 146.564,59.961 152.5,63C 161.017,65.2395 167.017,62.4062 170.5,54.5C 173.786,53.7929 177.119,53.4595 180.5,53.5C 179.378,54.9473 177.878,55.9473 176,56.5C 173.878,59.5023 174.045,62.3356 176.5,65C 175.167,66.3333 173.833,67.6667 172.5,69C 170.674,69.2917 168.841,69.125 167,68.5C 162.867,68.4692 161.034,70.4692 161.5,74.5C 158.833,74.5 156.167,74.5 153.5,74.5C 153.5,72.8333 153.5,71.1667 153.5,69.5C 151.278,69.822 149.444,69.1554 148,67.5C 144.021,70.4036 140.855,69.5703 138.5,65C 141.713,59.6093 140.38,56.1093 134.5,54.5C 137.487,54.0022 140.487,53.5022 143.5,53C 144.099,51.3775 144.766,49.8775 145.5,48.5 Z"/></g>
<g><path style="opacity:1" fill="#fba74c" d="M 108.5,79.5 C 108.81,76.2869 108.477,73.2869 107.5,70.5C 115.741,66.3793 124.075,62.2126 132.5,58C 135.237,56.9202 136.904,57.7536 137.5,60.5C 136.215,63.1142 135.549,65.6142 135.5,68C 126.699,72.403 117.699,76.2364 108.5,79.5 Z"/></g>
<g><path style="opacity:1" fill="#ec6227" d="M 67.5,87.5 C 69.3435,89.2789 70.0102,91.6122 69.5,94.5C 54.833,101.218 39.4996,103.385 23.5,101C 18.2377,96.1457 17.071,90.3124 20,83.5C 22.0643,79.039 24.3977,74.7057 27,70.5C 25.7123,76.0268 25.3789,81.6935 26,87.5C 27.2506,90.3807 29.4173,92.214 32.5,93C 38.8736,93.608 45.2069,93.2747 51.5,92C 56.8219,90.3918 62.1553,88.8918 67.5,87.5 Z"/></g>
<g><path style="opacity:1" fill="#f69245" d="M 137.5,69.5 C 139.736,70.3891 141.736,71.7224 143.5,73.5C 145.331,72.0706 147.331,71.5706 149.5,72C 134.334,78.1648 119.001,83.4982 103.5,88C 115.485,82.806 126.818,76.6394 137.5,69.5 Z"/></g>
<g><path style="opacity:1" fill="#f59046" d="M 46.5,88.5 C 47.9952,86.1689 47.6618,84.1689 45.5,82.5C 51.2102,82.529 56.8769,82.029 62.5,81C 69.1027,79.0128 75.7694,77.6794 82.5,77C 70.842,81.9417 58.842,85.775 46.5,88.5 Z"/></g>
<g><path style="opacity:1" fill="#ed6427" d="M 45.5,82.5 C 47.6618,84.1689 47.9952,86.1689 46.5,88.5C 33.5122,90.6776 28.0122,85.3443 30,72.5C 32.814,79.4898 37.9807,82.8231 45.5,82.5 Z"/></g>
<g><path style="opacity:1" fill="#f58a3c" d="M 107.5,70.5 C 108.477,73.2869 108.81,76.2869 108.5,79.5C 96.1109,85.8521 83.1109,90.8521 69.5,94.5C 70.0102,91.6122 69.3435,89.2789 67.5,87.5C 80.909,82.2449 94.2423,76.5782 107.5,70.5 Z"/></g>
<g><path style="opacity:1" fill="#1039c2" d="M 153.5,77.5 C 156.167,77.5 158.833,77.5 161.5,77.5C 161.5,82.8333 161.5,88.1667 161.5,93.5C 158.833,93.5 156.167,93.5 153.5,93.5C 153.5,88.1667 153.5,82.8333 153.5,77.5 Z"/></g>
<g><path style="opacity:1" fill="#b0c6ed" d="M 153.5,77.5 C 153.5,82.8333 153.5,88.1667 153.5,93.5C 153.5,96.8333 153.5,100.167 153.5,103.5C 119.167,103.5 84.8333,103.5 50.5,103.5C 84.3292,102.502 118.329,102.168 152.5,102.5C 152.174,93.9832 152.507,85.6499 153.5,77.5 Z"/></g>
<g><path style="opacity:1" fill="#0e64d9" d="M 153.5,93.5 C 156.167,93.5 158.833,93.5 161.5,93.5C 161.5,97.1667 161.5,100.833 161.5,104.5C 121.497,106.106 81.4975,107.773 41.5,109.5C 41.366,107.708 41.6993,106.042 42.5,104.5C 45.2062,104.425 47.8728,104.092 50.5,103.5C 84.8333,103.5 119.167,103.5 153.5,103.5C 153.5,100.167 153.5,96.8333 153.5,93.5 Z"/></g>
<g><path style="opacity:1" fill="#569be8" d="M 161.5,77.5 C 162.495,88.988 162.828,100.655 162.5,112.5C 121.833,112.5 81.1667,112.5 40.5,112.5C 39.9644,109.302 40.631,106.635 42.5,104.5C 41.6993,106.042 41.366,107.708 41.5,109.5C 81.1527,111.494 121.153,112.161 161.5,111.5C 161.5,109.167 161.5,106.833 161.5,104.5C 161.5,100.833 161.5,97.1667 161.5,93.5C 161.5,88.1667 161.5,82.8333 161.5,77.5 Z"/></g>
<g><path style="opacity:1" fill="#0d72e1" d="M 161.5,104.5 C 161.5,106.833 161.5,109.167 161.5,111.5C 121.153,112.161 81.1527,111.494 41.5,109.5C 81.4975,107.773 121.497,106.106 161.5,104.5 Z"/></g>
<g><path style="opacity:1" fill="#1714ae" d="M 85.5,117.5 C 88.5,117.5 91.5,117.5 94.5,117.5C 94.5,122.5 94.5,127.5 94.5,132.5C 91.5,132.5 88.5,132.5 85.5,132.5C 85.5,127.5 85.5,122.5 85.5,117.5 Z"/></g>
<g><path style="opacity:1" fill="#4a4abf" d="M 120.5,118.5 C 117.833,118.5 115.167,118.5 112.5,118.5C 112.5,123.167 112.5,127.833 112.5,132.5C 111.513,127.695 111.179,122.695 111.5,117.5C 114.713,117.19 117.713,117.523 120.5,118.5 Z"/></g>
<g><path style="opacity:1" fill="#100fad" d="M 120.5,118.5 C 120.5,123.167 120.5,127.833 120.5,132.5C 117.833,132.5 115.167,132.5 112.5,132.5C 112.5,127.833 112.5,123.167 112.5,118.5C 115.167,118.5 117.833,118.5 120.5,118.5 Z"/></g>
<g><path style="opacity:1" fill="#404050" d="M 71.5,147.5 C 73.5273,147.338 75.5273,147.505 77.5,148C 78.9733,148.71 79.6399,149.876 79.5,151.5C 77.4727,151.338 75.4727,151.505 73.5,152C 72.6634,153.011 72.33,154.178 72.5,155.5C 74.5,155.5 76.5,155.5 78.5,155.5C 78.2407,159.068 76.2407,160.401 72.5,159.5C 72.5,163.167 72.5,166.833 72.5,170.5C 70.8561,170.714 69.3561,170.38 68,169.5C 67.3333,163.167 67.3333,156.833 68,150.5C 69.1451,149.364 70.3117,148.364 71.5,147.5 Z"/></g>
<g><path style="opacity:1" fill="#444454" d="M 39.5,149.5 C 41.1667,149.5 42.8333,149.5 44.5,149.5C 44.5,156.5 44.5,163.5 44.5,170.5C 42.8561,170.714 41.3561,170.38 40,169.5C 39.5004,162.842 39.3337,156.175 39.5,149.5 Z"/></g>
<g><path style="opacity:1" fill="#404051" d="M 114.5,149.5 C 117.518,149.335 120.518,149.502 123.5,150C 125.107,151.049 125.773,152.549 125.5,154.5C 123.658,154.277 121.825,153.943 120,153.5C 118.338,153.388 117.171,154.054 116.5,155.5C 119.867,157.227 123.034,159.227 126,161.5C 126.944,164.347 126.444,166.847 124.5,169C 120.961,170.504 117.295,170.837 113.5,170C 111.893,168.951 111.227,167.451 111.5,165.5C 113.488,165.827 115.488,166.16 117.5,166.5C 119.319,166.658 120.652,165.991 121.5,164.5C 118.318,162.652 115.151,160.652 112,158.5C 110.927,154.9 111.76,151.9 114.5,149.5 Z"/></g>
<g><path style="opacity:1" fill="#424253" d="M 52.5,153.5 C 57.2225,152.553 61.0558,153.886 64,157.5C 64.499,161.821 64.6657,166.154 64.5,170.5C 62.8333,170.5 61.1667,170.5 59.5,170.5C 59.6655,166.486 59.4988,162.486 59,158.5C 57.3333,157.167 55.6667,157.167 54,158.5C 53.5012,162.486 53.3345,166.486 53.5,170.5C 51.8561,170.714 50.3561,170.38 49,169.5C 48.3333,165.167 48.3333,160.833 49,156.5C 50.1451,155.364 51.3117,154.364 52.5,153.5 Z"/></g>
<g><path style="opacity:1" fill="#464657" d="M 84.5,153.5 C 86.8568,153.337 89.1902,153.503 91.5,154C 92.3366,155.011 92.67,156.178 92.5,157.5C 90.5,157.5 88.5,157.5 86.5,157.5C 86.5,161.833 86.5,166.167 86.5,170.5C 84.8333,170.5 83.1667,170.5 81.5,170.5C 81.3341,165.489 81.5007,160.489 82,155.5C 82.9947,154.934 83.828,154.267 84.5,153.5 Z"/></g>
<g><path style="opacity:1" fill="#454555" d="M 95.5,153.5 C 107.889,152.063 111.889,157.229 107.5,169C 102.889,171.116 98.3886,170.949 94,168.5C 93.3333,166.5 93.3333,164.5 94,162.5C 97.0554,161.086 100.222,159.919 103.5,159C 100.986,157.196 98.3193,157.03 95.5,158.5C 94.3336,156.833 94.3336,155.166 95.5,153.5 Z"/></g>
<g><path style="opacity:1" fill="#464656" d="M 133.5,153.5 C 137.676,153.168 141.176,154.502 144,157.5C 144.743,159.441 144.576,161.274 143.5,163C 140.22,163.056 137.22,163.889 134.5,165.5C 137.168,166.738 139.834,166.738 142.5,165.5C 143.747,167.006 143.747,168.506 142.5,170C 132.415,172.576 127.915,168.743 129,158.5C 130.025,156.313 131.525,154.646 133.5,153.5 Z"/></g>
<g><path style="opacity:1" fill="#434354" d="M 151.5,153.5 C 153.527,153.338 155.527,153.505 157.5,154C 159.283,155.067 159.783,156.567 159,158.5C 153.317,156.514 150.984,158.514 152,164.5C 154.481,166.314 157.315,166.98 160.5,166.5C 159.981,169.775 157.981,171.108 154.5,170.5C 146.931,169.342 144.431,165.008 147,157.5C 148.397,155.93 149.897,154.596 151.5,153.5 Z"/></g>
<g><path style="opacity:1" fill="#d9dbe0" d="M 134.5,157.5 C 136.665,157.116 138.332,157.783 139.5,159.5C 137.5,160.833 135.5,160.833 133.5,159.5C 133.863,158.817 134.196,158.15 134.5,157.5 Z"/></g>
<g><path style="opacity:1" fill="#d6d8dd" d="M 98.5,163.5 C 100.167,163.5 101.833,163.5 103.5,163.5C 103.65,167.161 102.15,168.161 99,166.5C 98.5172,165.552 98.3505,164.552 98.5,163.5 Z"/></g>
</svg>
